<svg xmlns="http://www.w3.org/2000/svg" width="15.322" height="14.348" viewBox="0 0 15.322 14.348">
    <path data-name="Path 36" d="M11.462 29.244V16.735a.449.449 0 0 0-.449-.449H.449a.449.449 0 0 0-.449.449v11.611a2.247 2.247 0 0 0 2.244 2.244h9.667a2.233 2.233 0 0 1-.449-1.346zM2.394 24.9h1.437a.449.449 0 0 1 0 .9H2.394a.449.449 0 0 1 0-.9zm-.449-1.466a.449.449 0 0 1 .449-.449h1.437a.449.449 0 0 1 0 .9H2.394a.449.449 0 0 1-.449-.447zm7.152 5h-6.7a.449.449 0 0 1 0-.9H9.1a.449.449 0 0 1 0 .9zm.449-2.364a.449.449 0 0 1-.449.449H5.746a.449.449 0 0 1-.449-.449v-3.35a.449.449 0 0 1 .449-.449H9.1a.449.449 0 0 1 .449.449zM9.1 21.254H2.4a.449.449 0 0 1 0-.9h6.7a.449.449 0 0 1 0 .9zm0-1.915H2.4a.449.449 0 0 1 0-.9h6.7a.449.449 0 0 1 0 .9z" transform="translate(0 -16.286)" style="fill:#fff"/>
    <path data-name="Path 37" d="M207 246.286h2.454v2.454H207z" transform="translate(-200.805 -239.403)" style="fill:#fff"/>
    <path data-name="Path 38" d="M415.505 120.286h-2.514v9.846a1.481 1.481 0 0 0 2.959-.033v-9.364a.449.449 0 0 0-.445-.449z" transform="translate(-400.632 -117.174)" style="fill:#fff"/>
</svg>
