<svg xmlns="http://www.w3.org/2000/svg" width="15.248" height="17.035" viewBox="0 0 15.248 17.035">
    <g data-name="user (1)">
        <g data-name="Group 3">
            <g data-name="Group 2">
                <path data-name="Path 3" d="M115.214 0a4.423 4.423 0 1 0 4.423 4.423A4.435 4.435 0 0 0 115.214 0z" transform="translate(-107.589)" style="fill:#fff"/>
            </g>
        </g>
        <g data-name="Group 5">
            <g data-name="Group 4">
                <path data-name="Path 4" d="M39.381 251.059a4.124 4.124 0 0 0-.444-.811 5.5 5.5 0 0 0-3.8-2.395.814.814 0 0 0-.56.135 4.715 4.715 0 0 1-5.562 0 .725.725 0 0 0-.56-.135 5.458 5.458 0 0 0-3.8 2.395 4.755 4.755 0 0 0-.444.811.411.411 0 0 0 .019.367 7.707 7.707 0 0 0 .521.773 7.343 7.343 0 0 0 .888 1 11.572 11.572 0 0 0 .888.773 8.808 8.808 0 0 0 10.507 0 8.491 8.491 0 0 0 .888-.773 8.922 8.922 0 0 0 .888-1 6.77 6.77 0 0 0 .521-.773.33.33 0 0 0 .05-.367z" transform="translate(-24.165 -238.679)" style="fill:#fff"/>
            </g>
        </g>
    </g>
</svg>
